# xmcd CD database file
#
# Track frame offsets:
#	182
#	10172
#	30787
#	46277
#	62707
#	79795
#	95865
#	109725
#	136167
#	148755
#	169430
#	182200
#	199340
#	219407
#	235142
#	260072
#
# Disc length: 3725 seconds
#
# Revision: 0
# Processed by: cddbd v1.4PL0 Copyright (c) Steve Scherf et al.
# Submitted via: CDex 1.50beta10
#
DISCID=e60e8b10
DTITLE=Memphis Slim - Compil Warner Blues
DYEAR=1900
DGENRE=Blues
TTITLE0=Baby please come home
TTITLE1=Steady rolling blues
TTITLE2=Slim's thing
TTITLE3=Letter home
TTITLE4=Sweet root man
TTITLE5=Rock and rolling the house
TTITLE6=Goin' down to the river
TTITLE7=Go easy
TTITLE8=Rock me baby
TTITLE9=How come you do me like you do
TTITLE10=I feel so good
TTITLE11=Raining the blues
TTITLE12=Three-in-one boogie
TTITLE13=Beer drinking woman
TTITLE14=Cool blooded
TTITLE15=Highway 51 blues
EXTD=
EXTT0=
EXTT1=
EXTT2=
EXTT3=
EXTT4=
EXTT5=
EXTT6=
EXTT7=
EXTT8=
EXTT9=
EXTT10=
EXTT11=
EXTT12=
EXTT13=
EXTT14=
EXTT15=
PLAYORDER=
